
        <svg xmlns="http://www.w3.org/2000/svg" xmlns:xlink="http://www.w3.org/1999/xlink" version="1.1" width="2897.400921437785" 
        height="3200.5121744939643" viewBox="0 0 2897.400921437785 3200.5121744939643">
			
			<g transform="scale(10.02560872469822) translate(10, 10)">
				<defs id="SvgjsDefs13648"></defs><g id="SvgjsG13649" featureKey="rootContainer" transform="matrix(5.3236527175500035,0,0,5.3236527175500035,4.946802677220542,-0.031018846429571312)" fill="#393e46"><path xmlns="http://www.w3.org/2000/svg" d="M23.11 55.76L1.7 43.4a3.39 3.39 0 0 1-1.69-2.94v-24.7a3.39 3.39 0 0 1 1.69-2.94L23.11.46a3.39 3.39 0 0 1 3.39 0l21.41 12.36a3.39 3.39 0 0 1 1.69 2.94v24.73a3.39 3.39 0 0 1-1.69 2.94L26.5 55.76a3.39 3.39 0 0 1-3.39 0z"></path></g><g id="SvgjsG13650" featureKey="monogramFeature-0" transform="matrix(1.7481272498416718,0,0,1.7481272498416718,27.854265561222288,78.6042763766209)" fill="#ffffff"><path d="M6.4453 60 q-1.201171875 0 -2.065429688 -0.849609375 t-0.86426 -2.0508 l0 -36.211 q0 -1.201171875 0.8642578125 -2.05078125 t2.0654 -0.84961 t2.0508 0.84961 t0.84961 2.0508 l0 36.211 q0 1.201171875 -0.849609375 2.05078125 t-2.0508 0.84961 z M34.775 60 q-1.318359375 0 -2.28515625 -1.142578125 l-14.092 -18.076 q-0.615234375 -0.849609375 -0.615234375 -1.787109375 t0.61523 -1.7871 l14.092 -18.105 q0.87890625 -1.142578125 2.28515625 -1.142578125 q0.966796875 0 1.787109375 0.615234375 q1.11328125 0.9375 1.11328125 2.34375 q0 0.908203125 -0.615234375 1.7578125 l-12.715 16.318 l12.715 16.318 q0.615234375 0.8203125 0.615234375 1.7578125 q0 0.17578125 -0.087890625 0.8642578125 t-1.0254 1.4502 q-0.849609375 0.615234375 -1.787109375 0.615234375 z"></path></g><g id="SvgjsG13651" featureKey="nameFeature-0" transform="matrix(1.0217144570118417,0,0,1.0217144570118417,99.60534797193297,122.76735622547912)" fill="#ffffff"><path d="M4.8047 40 q-1.015625 0 -1.73828125 -0.712890625 t-0.72266 -1.7285 l0 -11.563 q0 -1.015625 0.72265625 -1.73828125 t1.7383 -0.72266 l10 0 q1.58203125 0 2.44140625 -0.95703125 q0.80078125 -0.99609375 0.80078125 -2.36328125 q0 -0.87890625 -0.4296875 -1.77734375 q-0.76171875 -1.54296875 -2.8125 -1.54296875 l-2.1484 0 q-1.015625 0 -1.73828125 -0.712890625 t-0.72266 -1.7285 t0.72266 -1.7383 t1.7383 -0.72266 l2.1484 0 q3.69140625 0 6.1328125 2.63671875 q2.03125 2.421875 2.03125 5.5859375 t-2.0313 5.6055 q-2.44140625 2.63671875 -6.1328125 2.63671875 l-7.5391 0 l0 9.1016 q0 1.015625 -0.72265625 1.728515625 t-1.7383 0.71289 z M4.8047 16.895 q-1.015625 0 -1.73828125 -0.712890625 t-0.72266 -1.7285 t0.72266 -1.7383 t1.7383 -0.72266 t1.7383 0.72266 t0.72266 1.7383 t-0.72266 1.7285 t-1.7383 0.71289 z M35.21925078125 40 q-1.015625 0 -1.73828125 -0.712890625 t-0.72266 -1.7285 l0 -11.563 q0 -1.015625 0.72265625 -1.73828125 t1.7383 -0.72266 l10 0 q1.58203125 0 2.44140625 -0.95703125 q0.80078125 -0.99609375 0.80078125 -2.36328125 q0 -0.87890625 -0.4296875 -1.77734375 q-0.76171875 -1.54296875 -2.8125 -1.54296875 q-1.015625 0 -1.728515625 -0.712890625 t-0.71289 -1.7285 q0 -1.03515625 0.712890625 -1.748046875 t1.7285 -0.71289 q3.69140625 0 6.1328125 2.63671875 q2.03125 2.421875 2.03125 5.5859375 t-2.0313 5.6055 q-2.44140625 2.63671875 -6.1328125 2.63671875 l-7.5391 0 l0 9.1016 q0 1.015625 -0.72265625 1.728515625 t-1.7383 0.71289 z M50.90255078125 40 q-0.6640625 0 -1.259765625 -0.3515625 t-0.92773 -1.0156 l-2.4414 -4.9609 q-0.25390625 -0.56640625 -0.25390625 -1.11328125 q0 -1.4453125 1.3671875 -2.16796875 q0.546875 -0.25390625 1.09375 -0.25390625 q1.484375 0 2.20703125 1.3671875 l2.4219 4.9609 q0.2734375 0.56640625 0.2734375 1.11328125 q0 1.4453125 -1.38671875 2.16796875 q-0.52734375 0.25390625 -1.09375 0.25390625 z M79.5988515625 40 l-14.746 0 q-1.015625 0 -1.73828125 -0.712890625 t-0.72266 -1.7285 q0 -1.03515625 0.72265625 -1.748046875 t1.7383 -0.71289 l14.746 0 q1.015625 0 1.73828125 0.712890625 t0.72266 1.748 q0 1.015625 -0.72265625 1.728515625 t-1.7383 0.71289 z M79.5988515625 16.895 l-14.746 0 q-1.015625 0 -1.73828125 -0.712890625 t-0.72266 -1.7285 t0.72266 -1.7383 t1.7383 -0.72266 l14.746 0 q1.015625 0 1.73828125 0.72265625 t0.72266 1.7383 t-0.72266 1.7285 t-1.7383 0.71289 z M79.5988515625 28.457 l-14.746 0 q-1.015625 0 -1.73828125 -0.72265625 t-0.72266 -1.7383 t0.72266 -1.7383 t1.7383 -0.72266 l14.746 0 q1.015625 0 1.73828125 0.72265625 t0.72266 1.7383 t-0.72266 1.7383 t-1.7383 0.72266 z M101.02905859375 40 q-1.4453125 0 -2.890625 -0.29296875 q-3.7890625 -0.8203125 -6.03515625 -3.22265625 q-0.64453125 -0.7421875 -0.64453125 -1.640625 q0 -0.05859375 0.029296875 -0.576171875 t0.78125 -1.2012 t1.6504 -0.68359 q0.05859375 0 0.576171875 0.01953125 t1.2402 0.78125 q1.25 1.2890625 3.45703125 1.71875 q0.91796875 0.1953125 1.8359375 0.1953125 q1.23046875 0 2.40234375 -0.3515625 q1.875 -0.68359375 2.2265625 -1.8359375 q0.1953125 -0.64453125 0.1953125 -1.11328125 q0 -0.9765625 -0.986328125 -1.650390625 t-4.3262 -1.4941 q-1.6015625 -0.4296875 -3.18359375 -0.95703125 q-6.09375 -2.05078125 -6.09375 -7.48046875 q0 -0.44921875 0.0390625 -0.9375 q0.4296875 -3.37890625 3.076171875 -5.341796875 t6.8262 -1.9629 q1.0546875 0.05859375 1.73828125 0.76171875 t0.68359 1.7383 q-0.05859375 1.0546875 -0.76171875 1.73828125 t-1.6992 0.68359 q-2.75390625 0 -4.140625 1.23046875 q-0.87890625 0.76171875 -0.87890625 2.1875 q0 1.15234375 1.044921875 1.9140625 t4.6191 1.6602 q1.5234375 0.37109375 3.046875 0.8984375 q5.8984375 1.97265625 5.8984375 7.0703125 q0 0.41015625 -0.0390625 0.83984375 q-0.625 4.90234375 -5.76171875 6.71875 q-1.875 0.5859375 -3.92578125 0.5859375 z M108.02105859375 19.551 q-1.015625 0 -1.728515625 -0.72265625 t-0.71289 -1.7383 t0.71289 -1.7383 t1.7285 -0.72266 t1.7383 0.72266 t0.72266 1.7383 t-0.72266 1.7383 t-1.7383 0.72266 z M129.920171875 40 q-1.4453125 0 -2.890625 -0.29296875 q-3.7890625 -0.8203125 -6.03515625 -3.22265625 q-0.64453125 -0.7421875 -0.64453125 -1.640625 q0 -0.05859375 0.029296875 -0.576171875 t0.78125 -1.2012 t1.6504 -0.68359 q0.05859375 0 0.576171875 0.01953125 t1.2402 0.78125 q1.25 1.2890625 3.45703125 1.71875 q0.91796875 0.1953125 1.8359375 0.1953125 q1.23046875 0 2.40234375 -0.3515625 q1.875 -0.68359375 2.2265625 -1.8359375 q0.1953125 -0.64453125 0.1953125 -1.11328125 q0 -0.9765625 -0.986328125 -1.650390625 t-4.3262 -1.4941 q-1.6015625 -0.4296875 -3.18359375 -0.95703125 q-6.09375 -2.05078125 -6.09375 -7.48046875 q0 -0.44921875 0.0390625 -0.9375 q0.4296875 -3.37890625 3.076171875 -5.341796875 t6.8262 -1.9629 q1.0546875 0.05859375 1.73828125 0.76171875 t0.68359 1.7383 q-0.05859375 1.0546875 -0.76171875 1.73828125 t-1.6992 0.68359 q-2.75390625 0 -4.140625 1.23046875 q-0.87890625 0.76171875 -0.87890625 2.1875 q0 1.15234375 1.044921875 1.9140625 t4.6191 1.6602 q1.5234375 0.37109375 3.046875 0.8984375 q5.8984375 1.97265625 5.8984375 7.0703125 q0 0.41015625 -0.0390625 0.83984375 q-0.625 4.90234375 -5.76171875 6.71875 q-1.875 0.5859375 -3.92578125 0.5859375 z M136.912171875 19.551 q-1.015625 0 -1.728515625 -0.72265625 t-0.71289 -1.7383 t0.71289 -1.7383 t1.7285 -0.72266 t1.7383 0.72266 t0.72266 1.7383 t-0.72266 1.7383 t-1.7383 0.72266 z"></path></g>
			</g>
		</svg>
	